<svg width="24" height="25" viewBox="0 0 24 25" fill="none" xmlns="http://www.w3.org/2000/svg">
<path fill-rule="evenodd" clip-rule="evenodd" d="M5.20902 4.27804L5.96885 5.06609L5.68801 6.07819C5.53352 6.63486 5.39999 7.09952 5.39131 7.11083C5.37084 7.13744 3.8098 7.3449 3.61083 7.34745C3.46311 7.34933 3.47162 7.33817 3.91782 6.94572C4.17018 6.7237 4.37671 6.5242 4.37671 6.50244C4.37671 6.48068 4.05103 6.18008 3.65294 5.83446C3.02792 5.29174 2.94265 5.20176 3.0276 5.17486C3.08172 5.15772 3.47394 5.09686 3.89917 5.03962C4.3244 4.98234 4.67687 4.9316 4.68242 4.92685C4.68797 4.92209 4.63339 4.60138 4.56112 4.21416C4.4889 3.82694 4.43415 3.50562 4.43951 3.50006C4.44483 3.49455 4.79111 3.84461 5.20902 4.27804ZM9.16501 4.04834C9.63491 4.19895 10.0281 4.33118 10.0387 4.34215C10.0494 4.35317 9.99888 4.55206 9.92657 4.78411C9.85425 5.01616 9.809 5.21929 9.82606 5.23549C9.86003 5.26795 10.1614 5.3608 13.6318 6.40832C16.9106 7.39804 17.0113 7.43003 17.2929 7.57041C17.4359 7.64168 17.6599 7.81847 17.8159 7.98302L18.0888 8.27094L18.3868 8.1168C18.8894 7.85691 19.3199 7.76303 20.0216 7.76044C20.603 7.75832 21.3045 7.85517 21.3903 7.94943C21.4181 7.98005 20.9295 9.72589 20.8803 9.77116C20.8708 9.77997 20.6891 9.75528 20.4764 9.71637C19.8633 9.60416 19.2137 9.73569 18.9631 10.0228C18.8851 10.112 18.8879 10.1256 19.0427 10.4092C19.2184 10.7313 19.2274 10.7755 19.1516 10.9477C19.0914 11.0846 19.0022 11.1246 18.4526 11.2615C16.9776 11.6288 15.6812 12.5239 15.1693 13.5283C14.6502 14.547 14.0404 15.0057 13.1299 15.0621C12.5842 15.096 12.0652 14.9898 11.5808 14.7453C11.089 14.497 10.6624 14.0403 10.3897 13.4701C10.13 12.9271 10.0628 12.6522 10.0309 12.0019L10.0037 11.4491L10.2686 10.4837C10.4143 9.95266 10.5228 9.50726 10.5099 9.49379C10.4969 9.48037 9.49533 9.17045 8.28421 8.80508C7.07309 8.43977 6.07732 8.13616 6.07141 8.13042C6.0609 8.12029 7.1052 4.46355 7.12508 4.44089C7.13053 4.43462 7.32796 4.49256 7.56368 4.56959C7.79945 4.64665 7.99451 4.71011 7.99714 4.71053C7.99978 4.711 8.06104 4.4994 8.13326 4.24031C8.20549 3.98122 8.27498 3.77041 8.28767 3.77187C8.30031 3.77333 8.69512 3.89774 9.16501 4.04834ZM12.9956 7.7049C12.9211 7.96615 12.8846 8.17022 12.9085 8.19194C12.9752 8.25252 15.4298 8.96049 15.4901 8.93651C15.5346 8.9188 15.8077 8.10041 15.7779 8.07393C15.7731 8.06979 15.3395 7.93501 14.8142 7.77452C14.289 7.61398 13.7057 7.43323 13.5181 7.37279C13.3305 7.3124 13.165 7.26119 13.1504 7.25907C13.1358 7.25691 13.0661 7.45754 12.9956 7.7049ZM12.4798 9.50453C12.4285 9.7053 12.3802 9.91069 12.3725 9.96091C12.3599 10.0421 12.4933 10.0923 13.5863 10.4176C14.2617 10.6187 14.8572 10.7945 14.9097 10.8083C14.9952 10.8309 15.0177 10.7907 15.1263 10.4222C15.1929 10.196 15.2472 9.98884 15.2469 9.96189C15.2463 9.91681 12.8174 9.15179 12.6476 9.14322C12.592 9.14039 12.5492 9.23244 12.4798 9.50453ZM11.4403 11.3326C11.3211 11.4685 11.2698 11.7764 11.3004 12.1718C11.3611 12.9553 12.0046 13.5551 12.8382 13.6051C13.298 13.6326 13.5727 13.54 13.8251 13.2723C14.0237 13.0617 14.2446 12.628 14.2453 12.4471C14.2468 12.0977 13.7529 11.7853 12.5888 11.3993C11.803 11.1387 11.6196 11.128 11.4403 11.3326ZM19.7147 11.986C20.3535 12.2221 20.9945 13.3254 21.4539 14.9794C21.8345 16.3496 21.9948 17.585 21.9979 19.1733L22 20.2803L21.8369 20.6341C21.5622 21.2298 21.2138 21.5015 20.7266 21.5C20.4021 21.499 18.1011 20.8472 17.7109 20.6458C17.1026 20.3318 16.8169 19.6919 16.822 18.6551C16.8252 18.0269 16.8902 17.5878 17.1183 16.653C17.3768 15.5938 17.2464 15.252 16.3482 14.6343C16.0283 14.4143 15.883 14.2319 15.883 14.0502C15.883 13.8648 16.1256 13.4694 16.4063 13.1975C16.7677 12.8472 17.0162 12.669 17.4748 12.4313C18.3119 11.9973 19.244 11.812 19.7147 11.986ZM18.5559 13.6878C18.302 13.87 18.144 14.1936 18.144 14.531C18.144 15.419 19.2305 15.8353 19.8111 15.1697C20.2459 14.6712 20.0906 13.8924 19.499 13.6057C19.2207 13.4708 18.808 13.5068 18.5559 13.6878Z" fill="white" fill-opacity="0.42"/>
</svg>
